<svg width="40" height="40" viewBox="0 0 446 509" fill="none" xmlns="http://www.w3.org/2000/svg">
<path d="M336.066 0.902344C337.302 0.919746 337.302 0.919746 338.562 0.9375C339.389 0.946523 340.215 0.955547 341.066 0.964844C341.704 0.976445 342.343 0.988047 343 1C343.33 1.99 343.66 2.98 344 4C341.495 8.43227 338.363 11.8808 334.75 15.4375C334.266 15.9156 333.782 16.3937 333.284 16.8862C330.544 19.5715 327.736 22.1417 324.812 24.625C313.691 34.2154 304.584 47.0098 297.312 59.7148C296.455 61.2086 295.56 62.6819 294.625 64.1289C290.933 69.8972 288.033 75.9712 285.188 82.1875C284.79 83.0433 284.393 83.8991 283.983 84.7808C283.425 86.0243 283.425 86.0243 282.855 87.293C282.355 88.3993 282.355 88.3993 281.844 89.5281C279.94 95.1029 279.872 100.79 279.867 106.629C279.866 107.34 279.865 108.052 279.864 108.785C279.864 110.285 279.865 111.785 279.87 113.285C279.875 115.532 279.87 117.779 279.863 120.025C279.853 133.62 280.376 146.574 284.062 159.75C284.52 161.423 284.52 161.423 284.987 163.13C287.763 172.894 291.59 181.885 296 191C296.356 191.911 296.712 192.823 297.078 193.762C297.984 195.961 299.007 197.611 300.438 199.5C302.469 202.254 304.27 205.044 306 208C307.263 210.032 308.536 212.058 309.812 214.082C310.748 215.593 311.634 217.135 312.5 218.688C313.971 221.139 313.971 221.139 316.352 223.305C318.888 225.886 320.823 228.467 322.875 231.438C328.199 238.664 334.631 244.403 341.27 250.398C343.592 252.548 345.76 254.83 347.938 257.125C353.72 262.984 360.348 267.654 366.972 272.502C376.04 279.199 384.831 286.223 393 294C393.845 294.804 393.845 294.804 394.707 295.625C403.065 303.632 410.782 311.839 417.638 321.172C419.053 323.071 420.519 324.923 421.992 326.777C430.998 338.429 436.193 351.155 441 365C441.268 365.762 441.537 366.523 441.813 367.308C447.149 382.894 446.306 396.888 440 412C439.711 412.718 439.421 413.437 439.123 414.177C433.83 427.23 427.435 439.416 418 450C415.688 450.875 415.688 450.875 414 451C415.182 441.775 420.202 434.166 425.125 426.438C428.651 420.805 431.128 415.365 433 409C433.224 408.312 433.449 407.623 433.68 406.914C436.576 396.559 435.935 384.245 433 374C432.805 373.047 432.611 372.095 432.41 371.113C430.877 363.884 428.4 358.873 424 353C423.385 352.053 422.77 351.105 422.137 350.129C412.377 335.837 398.698 326.097 383.43 318.316C381 317 381 317 378.232 315.104C375.169 313.11 372.168 311.54 368.852 310.012C367.688 309.473 366.524 308.935 365.326 308.38C364.092 307.815 362.859 307.251 361.625 306.688C360.364 306.107 359.103 305.527 357.842 304.947C351.038 301.82 344.224 298.715 337.375 295.688C336.738 295.404 336.1 295.121 335.444 294.829C332.337 293.43 332.337 293.43 329 293C329.513 293.245 330.026 293.49 330.555 293.742C388.689 322.124 388.689 322.124 400.312 350.88C402.112 356.429 402.133 362.213 402 368C400.68 368.66 399.36 369.32 398 370C396.224 366.206 394.921 362.886 394.25 358.75C391.217 344.699 377.517 332.536 366.125 324.625C357.031 318.976 347.281 314.56 337.629 309.969C336.515 309.437 335.401 308.906 334.253 308.358C332.039 307.304 329.823 306.255 327.605 305.212C322.452 302.766 317.712 300.231 313 297C311.712 296.353 310.416 295.722 309.113 295.105C304.751 292.983 301.027 290.256 297.188 287.312C295.892 286.326 294.594 285.343 293.293 284.363C292.731 283.933 292.169 283.503 291.591 283.06C289.864 281.808 289.864 281.808 287 281C287.433 281.722 287.866 282.444 288.312 283.188C290.505 287.491 291.225 292.175 292.156 296.879C293.014 300.052 294.282 302.226 296 305C296.555 307.105 296.555 307.105 296.875 309.188C297.777 313.735 299.571 317.357 301.73 321.434C302.955 323.909 303.832 326.315 304.688 328.938C307.755 337.74 312.554 345.836 317 354C317.608 355.118 318.217 356.235 318.844 357.387C319.817 359.166 320.79 360.945 321.766 362.723C326.764 371.945 330.831 381.541 334.848 391.223C337.292 397.246 337.292 397.246 340.117 403.094C346.863 416.334 349.182 432.371 351 447C351.089 447.648 351.178 448.296 351.269 448.963C352.484 457.851 353.195 466.651 353.25 475.625C353.259 476.442 353.268 477.258 353.278 478.1C353.226 488.143 350.355 499.432 345 508C342.902 508.656 342.902 508.656 341 509C340.825 508.301 340.649 507.603 340.469 506.883C334.205 481.221 334.205 481.221 322 458C321.31 456.917 321.31 456.917 320.605 455.812C313.39 444.542 305.419 436.907 293.309 431.156C291 430 291 430 287.938 427.875C284.759 425.846 281.818 424.824 278.238 423.723C276.167 423.054 274.233 422.269 272.25 421.375C267.358 419.305 263.09 418.873 257.801 418.867C256.6 418.865 255.399 418.863 254.162 418.861C252.892 418.866 251.621 418.87 250.312 418.875C249.009 418.877 247.706 418.879 246.363 418.881C239.248 418.913 232.163 419.047 225.062 419.5C224.35 419.545 223.637 419.589 222.902 419.635C222.218 419.678 221.533 419.721 220.828 419.766C210.81 420.379 201.204 419.951 191.25 418.75C190.291 418.641 189.333 418.532 188.345 418.419C175.401 416.717 165.07 411.487 156.676 401.395C151.175 393.534 147.712 385.629 149 376C149.085 375.179 149.17 374.358 149.258 373.512C149.98 368.574 151.388 365.115 154.125 360.938C156.746 356.841 157.883 353.843 157.523 348.961C156.643 345.662 154.58 344.122 152 342C147.031 336.618 145.684 332.745 145.789 325.508C146.083 322.012 146.929 319.831 149 317C152.188 315.125 152.188 315.125 155 314C154.739 310.478 153.757 309.787 151 307.375C150.01 306.591 149.02 305.808 148 305C146.133 301.267 146.45 297.065 147 293C149.93 288.347 153.457 285.963 158 283C161.554 279.126 161.58 276.021 161.391 270.93C160.096 261.222 153.95 255.668 146.891 249.555C137.253 241.037 137.253 241.037 136.688 234.25C136.776 229.778 137.981 227.396 141 224C142.739 222.708 144.526 221.626 146.402 220.543C149.818 218.514 153.084 216.286 156.375 214.062C160.583 211.231 164.795 208.478 169.188 205.938C180.457 199.276 194.401 190.142 200 178C200.557 177.402 201.114 176.804 201.688 176.188C203.829 172.618 203.756 169.037 203 165C201.045 162.209 201.045 162.209 198 160C196.723 158.903 195.453 157.798 194.188 156.688C193.5 156.093 192.813 155.499 192.105 154.887C189.291 152.365 186.665 149.678 184.02 146.98C181.984 144.985 179.867 143.149 177.688 141.312C174.778 138.797 172.554 136.594 171 133C171 131.68 171 130.36 171 129C176.083 129.154 178.358 132.021 181.645 135.504C182.092 135.998 182.539 136.491 183 137C182.01 132.545 182.01 132.545 181 128C187.799 130.137 191.915 135.938 196.562 141.062C199.637 144.45 202.733 147.795 206 151C207.775 144.221 209.357 137.508 210.375 130.57C211.137 127.435 212.543 124.873 214 122C214.537 120.198 215.035 118.384 215.5 116.562C217.509 109.792 220.391 103.551 223.438 97.1875C223.904 96.2092 224.371 95.2309 224.852 94.2229C227.309 89.169 229.897 84.3357 233.004 79.6497C234.171 77.8535 234.171 77.8535 235 75C233.928 75.4331 232.855 75.8663 231.75 76.3125C228.362 77.5975 225.024 78.4772 221.488 79.2578C214.736 80.9224 208.698 83.5744 202.438 86.5625C200.743 87.361 200.743 87.361 199.014 88.1755C185.216 94.7268 171.885 101.367 159.426 110.246C156.025 112.66 152.748 114.764 148.938 116.5C142.272 119.586 136.61 124.252 130.779 128.662C128.314 130.516 125.814 132.321 123.312 134.125C122.439 134.764 121.565 135.404 120.664 136.062C118.837 137.391 116.998 138.703 115.148 140C100.941 150.196 89.0585 163.013 79.5508 177.672C77.8403 180.24 76.0247 182.709 74.1875 185.188C72.7858 187.121 71.3901 189.058 70 191C69.322 191.945 68.6439 192.89 67.9453 193.863C56.3758 210.879 47.5459 229.938 43 250C42.6674 251.098 42.3348 252.197 41.9922 253.328C32.6263 287.989 40.2545 324.268 56.6875 355.5C57.1458 356.378 57.1458 356.378 57.6133 357.274C62.4254 366.47 67.6147 374.83 74 383C75.3181 384.829 76.6307 386.663 77.9375 388.5C84.734 397.803 91.8918 406.804 99.375 415.562C100.106 416.42 100.106 416.42 100.853 417.294C103.772 420.678 106.824 423.851 110 427C110.948 427.942 111.896 428.885 112.843 429.827C113.341 430.322 113.838 430.816 114.351 431.325C116.603 433.564 118.852 435.805 121.101 438.046C122.279 439.219 123.458 440.391 124.638 441.563C132.843 449.709 140.788 457.867 147.75 467.125C148.487 468.097 149.225 469.069 149.984 470.07C153.456 475.117 155.443 478.799 155 485C151.688 484.76 150.801 483.792 148.449 481.34C147.52 480.213 146.6 479.078 145.688 477.938C144.702 476.741 143.716 475.544 142.73 474.348C142.258 473.768 141.785 473.188 141.298 472.59C133.962 463.604 126.036 455.181 116.945 447.961C109.57 441.987 103.079 435.179 96.4849 428.368C90.1557 421.848 83.7951 415.839 76.4962 410.412C72.1208 407.151 68.263 403.627 64.5 399.688C63.9328 399.107 63.3656 398.526 62.7812 397.928C61.6848 396.805 60.5911 395.679 59.5007 394.55C56.735 391.694 53.931 388.881 51.043 386.148C45.5825 380.929 41.2521 375.228 37 369C36.3361 368.054 35.6723 367.108 34.9883 366.133C22.5097 347.634 12.6294 327.607 7 306C6.66742 304.748 6.33484 303.497 5.99219 302.207C4.38882 295.692 3.33584 289.129 2.42969 282.484C2.25696 280.065 2.25696 280.065 1 279C0.744304 274.443 0.814762 269.875 0.8125 265.312C0.800254 264.032 0.788008 262.751 0.775391 261.432C0.773457 260.192 0.771523 258.953 0.769531 257.676C0.765422 256.541 0.761313 255.405 0.75708 254.236C1.01142 250.848 1.85247 248.183 3 245C3.36888 242.284 3.68025 239.6 3.9375 236.875C4.71907 229.702 5.87592 222.917 8 216C8.21221 215.301 8.42442 214.602 8.64307 213.882C16.0857 189.833 28.4349 166.202 46 148C47.1751 146.674 48.3422 145.341 49.5 144C63.7405 127.671 78.4946 111.859 96 99C97.587 97.7547 99.1708 96.5052 100.75 95.25C108.217 89.4712 115.985 84.3234 124.059 79.4336C127.126 77.5594 130.146 75.6193 133.16 73.6602C143.152 67.1762 153.058 61.0392 163.86 56.0068C166.283 54.8668 168.686 53.6888 171.09 52.5078C185.44 45.4958 199.826 39.8507 215.094 35.2109C218.782 34.0837 222.419 32.828 226.062 31.5625C233.708 28.973 241.486 26.9879 249.321 25.0549C250.272 24.8164 251.223 24.5778 252.203 24.332C253.056 24.123 253.908 23.9139 254.786 23.6985C257.251 23.0338 257.251 23.0338 260 21C262.281 20.4375 262.281 20.4375 264.93 20C265.89 19.835 266.85 19.67 267.84 19.5C269.342 19.2525 269.342 19.2525 270.875 19C272.852 18.6717 274.829 18.3385 276.805 18C277.681 17.8556 278.557 17.7113 279.46 17.5625C282.129 16.9713 284.474 16.0336 287 15C288.939 14.6044 290.879 14.2126 292.827 13.8586C306.824 11.2938 322.706 1.53372 336.066 0.902344ZM215 45C218.815 46.4673 221.29 45.4334 225 44C221.185 42.5327 218.71 43.5666 215 45ZM206 49C203.969 49.9345 201.965 50.9322 200 52C200.99 52.33 201.98 52.66 203 53C205.677 51.6275 205.677 51.6275 208 50C207.34 49.67 206.68 49.34 206 49ZM189.246 55.7383C188.319 56.1413 187.391 56.5443 186.435 56.9595C185.446 57.406 184.457 57.8525 183.438 58.3125C182.414 58.7667 181.391 59.221 180.336 59.689C165.758 66.2473 151.784 73.9228 138 82C137.122 82.5105 136.244 83.0209 135.34 83.5469C124.592 89.883 114.484 96.9736 104.684 104.679C102.982 106.014 101.271 107.338 99.5586 108.66C81.0203 123.016 63.2114 138.315 49.2515 157.3C48.0027 158.996 46.7311 160.674 45.457 162.352C39.2286 170.68 34.1264 179.501 29.2551 188.679C28.3673 190.321 27.4514 191.948 26.5164 193.563C22.6724 200.287 20.064 206.976 17.8125 214.375C17.4708 215.473 17.1291 216.572 16.7771 217.703C12.0066 233.233 9.8128 247.497 9.8147 263.767C9.81251 265.864 9.79429 267.961 9.77539 270.059C9.72431 281.784 11.2716 292.563 14.8125 303.75C15.3596 305.501 15.9065 307.253 16.4531 309.004C16.8543 310.28 16.8543 310.28 17.2637 311.583C17.909 313.701 18.4945 315.821 19.0469 317.965C24.7998 339.052 37.107 360.931 52 377C52 373.747 51.6028 373.01 49.9102 370.367C49.2347 369.295 49.2347 369.295 48.5457 368.201C48.0562 367.434 47.5668 366.666 47.0625 365.875C38.0593 351.386 30.783 337.421 26 321C25.6926 319.966 25.6926 319.966 25.3789 318.911C21.6362 306.209 20.8352 294.467 20.875 281.25C20.8711 279.982 20.8673 278.713 20.8633 277.406C20.8991 242.315 31.4005 208.692 50 179C50.4004 178.353 50.8008 177.707 51.2134 177.041C55.7614 169.71 60.5506 162.698 66 156C66.6252 155.202 67.2504 154.404 67.8945 153.582C78.07 140.637 89.2394 128.594 102.16 118.355C104.652 116.289 106.969 114.122 109.282 111.86C117.719 103.673 127.341 97.3751 137.13 90.9221C140.218 88.8537 143.254 86.7183 146.293 84.5781C153.089 79.8309 160.147 75.5976 167.312 71.4375C167.941 71.0704 168.569 70.7032 169.217 70.325C178.625 64.8314 188.115 59.5923 198 55C194.458 53.734 192.646 54.2467 189.246 55.7383ZM53 377C53.33 377.99 53.66 378.98 54 380C54 379.01 54 378.02 54 377C53.67 377 53.34 377 53 377ZM57 382C58 384 58 384 58 384L57 382Z" fill="white"/>
</svg>
