<svg width="30" height="30" viewBox="0 0 512 430" fill="none" xmlns="http://www.w3.org/2000/svg">
<path d="M504 5.00004C509.794 10.6153 512.211 17.0257 512.41 25.0826C512.418 37.6464 510.12 49.3247 507.41 61.5547C506.917 63.8491 506.426 66.1438 505.936 68.4388C504.611 74.6275 503.262 80.8107 501.909 86.9934C500.618 92.9151 499.344 98.8408 498.071 104.767C495.713 115.743 493.343 126.716 490.964 137.688C487.53 153.521 484.134 169.362 480.758 185.207C480.507 186.385 480.256 187.564 479.997 188.778C478.984 193.529 477.972 198.28 476.96 203.031C475.191 211.333 473.416 219.634 471.638 227.935C471.384 229.122 471.129 230.31 470.867 231.534C470.349 233.953 469.831 236.371 469.313 238.79C464.79 259.912 460.29 281.04 455.811 302.172C454.677 307.522 453.541 312.872 452.404 318.221C452.165 319.346 452.165 319.346 451.921 320.494C451.121 324.258 450.321 328.022 449.521 331.786C447.802 339.869 446.089 347.953 444.382 356.039C443.217 361.551 442.047 367.062 440.873 372.573C440.194 375.76 439.518 378.948 438.848 382.137C438.115 385.62 437.373 389.102 436.628 392.583C436.419 393.584 436.211 394.586 435.997 395.619C433.777 405.886 430.903 418.594 422.199 425.41C415.78 429.245 409.684 429.855 402.41 428.527C392.19 425.738 384.339 419.245 376 413C374.441 411.851 372.881 410.704 371.32 409.559C368.127 407.214 364.938 404.861 361.754 402.504C357.194 399.135 352.602 395.811 348 392.5C337.806 385.16 327.706 377.695 317.604 370.23C315.216 368.465 312.827 366.701 310.438 364.938C309.659 364.363 308.88 363.788 308.077 363.195C302.536 359.114 296.962 355.08 291.375 351.063C285.487 346.828 279.654 342.546 274 338C270.347 340.029 267.553 342.218 264.637 345.203C263.832 346.019 263.027 346.835 262.197 347.676C261.369 348.525 260.541 349.375 259.688 350.25C254.566 355.481 249.438 360.581 243.878 365.347C240.77 368.083 237.896 371.042 235 374C230.751 378.299 226.483 382.468 221.848 386.355C219.634 388.325 217.655 390.468 215.625 392.625C211.005 397.269 205.601 401.844 198.763 402.076C197.959 402.067 197.156 402.058 196.328 402.049C195.112 402.038 195.112 402.038 193.872 402.027C193.254 402.018 192.636 402.009 192 402C192.895 381.429 193.986 360.875 195.302 340.327C195.664 334.666 196.007 329.005 196.31 323.341C196.607 317.794 196.95 312.253 197.325 306.711C197.459 304.618 197.576 302.523 197.677 300.428C198.573 282.131 198.573 282.131 204.842 276.435C206.539 275.257 208.258 274.111 210 273C211.69 271.527 213.36 270.029 215 268.5C225 259.5 225 259.5 227.492 257.258C229.186 255.733 230.879 254.207 232.57 252.68C236.316 249.301 240.065 245.931 243.875 242.625C247.843 239.172 251.708 235.61 255.578 232.047C258.964 228.934 262.399 225.888 265.875 222.875C268.618 220.455 271.309 217.978 274 215.5C277.959 211.856 281.952 208.261 286.016 204.734C290.054 201.205 294.019 197.594 298 194C299.666 192.5 301.333 191 303 189.5C303.825 188.758 304.65 188.015 305.5 187.25C313 180.5 313 180.5 315.492 178.258C317.186 176.733 318.879 175.207 320.57 173.68C324.316 170.301 328.065 166.931 331.875 163.625C335.843 160.172 339.708 156.61 343.578 153.047C346.964 149.934 350.399 146.888 353.875 143.875C356.618 141.455 359.309 138.978 362 136.5C365.959 132.856 369.952 129.261 374.016 125.734C378.054 122.205 382.019 118.594 386 115C387.666 113.5 389.333 112 391 110.5C391.825 109.758 392.65 109.015 393.5 108.25C396 106 398.5 103.75 401 101.5C401.819 100.763 402.637 100.025 403.48 99.2657C405.21 97.7107 406.942 96.1588 408.676 94.6094C411.127 92.4164 413.567 90.2131 416 88C416.574 87.4818 417.147 86.9636 417.738 86.4297C419.259 85.0393 419.259 85.0393 421 83C421 82.01 421 81.02 421 80C414.869 78.0638 410.533 80.4159 405 83C401.927 84.6975 398.995 86.5718 396.062 88.5C394.391 89.5771 392.719 90.6539 391.047 91.7305C389.785 92.5491 389.785 92.5491 388.498 93.3843C384.622 95.8912 380.718 98.3517 376.812 100.813C376.039 101.301 375.265 101.79 374.468 102.294C365.027 108.255 355.552 114.164 346.081 120.077C341.053 123.216 336.026 126.358 331 129.5C329 130.75 327 132 325 133.25C324.01 133.869 323.02 134.488 322 135.125C241 185.75 241 185.75 237.999 187.626C236.003 188.873 234.007 190.121 232.011 191.368C226.95 194.532 221.888 197.695 216.824 200.856C207.703 206.55 198.586 212.251 189.5 218C184.415 221.217 179.325 224.426 174.227 227.621C173.228 228.248 172.23 228.876 171.201 229.522C169.151 230.799 167.092 232.061 165.023 233.308C159.204 236.842 153.932 240.496 148.89 245.083C138.495 252.361 138.495 252.361 131.654 251.654C127.793 250.65 124.053 249.415 120.297 248.082C118.859 247.605 117.42 247.132 115.98 246.662C112.909 245.657 109.844 244.633 106.783 243.596C99.5176 241.151 92.1819 238.933 84.8545 236.683C80.6709 235.396 76.4928 234.09 72.3144 232.785C70.6335 232.261 68.9526 231.736 67.2717 231.211C66.436 230.951 65.6003 230.69 64.7393 230.421C61.2914 229.345 57.8429 228.272 54.3944 227.198C51.0199 226.147 47.6457 225.095 44.2716 224.043C42.6879 223.549 41.1041 223.055 39.5202 222.562C34.6763 221.053 29.836 219.534 25 218C23.2595 217.45 23.2595 217.45 21.4838 216.888C20.4312 216.548 19.3786 216.208 18.2942 215.857C17.3971 215.568 16.4999 215.28 15.5756 214.982C9.60929 212.707 3.34358 209.635 -1.07288e-05 204C-0.953436 199.257 -0.783604 194.485 1.81249 190.313C9.01059 182.076 19.785 178.143 29.75 174.375C31.1571 173.833 32.5638 173.289 33.9702 172.745C38.0408 171.174 42.1178 169.62 46.1959 168.068C50.268 166.517 54.3368 164.958 58.406 163.399C68.9359 159.366 79.4704 155.345 90.0078 151.332C102.511 146.57 115.007 141.789 127.5 137C139.772 132.297 152.045 127.599 164.324 122.914C165.457 122.482 166.59 122.05 167.757 121.604C170.07 120.722 172.382 119.84 174.695 118.958C193.807 111.666 212.91 104.351 232 97C249.927 90.0969 267.865 83.223 285.812 76.375C286.964 75.9356 288.116 75.4962 289.302 75.0435C291.612 74.162 293.923 73.2805 296.233 72.399C297.365 71.967 298.498 71.535 299.664 71.0899C300.789 70.6606 301.914 70.2313 303.074 69.7889C314.281 65.5123 325.485 61.2274 336.688 56.9375C337.636 56.5743 338.585 56.2111 339.562 55.8369C350.621 51.6017 361.676 47.3573 372.727 43.1016C373.801 42.6879 374.875 42.2742 375.982 41.8479C377.061 41.4324 378.141 41.0168 379.252 40.5887C380.336 40.1716 381.419 39.7545 382.534 39.3248C384.711 38.4869 386.887 37.6488 389.063 36.8107C407.869 29.5694 426.7 22.396 445.548 15.2659C455.1 11.6488 464.63 7.99733 474.089 4.1436C484.314 0.126665 494.274 -0.911345 504 5.00004Z" fill="white"/>
</svg>
