<svg width="40" height="40" viewBox="0 0 512 295" fill="none" xmlns="http://www.w3.org/2000/svg">
<path d="M294.813 10.6876C300.744 19.6688 301.169 28.8024 301.125 39.3126C301.123 40.4647 301.121 41.6168 301.119 42.8038C301.068 53.7896 300.786 64.7683 300.5 75.7501C296.99 109.326 296.99 109.326 306 140C309.008 142.112 310.712 143.122 314.395 142.774C336.898 136.093 354.404 97.5631 364.691 78.9396C372.453 64.5798 380.046 49.9389 386.121 34.7736C386.469 33.9121 386.817 33.0507 387.175 32.1632C387.829 30.5245 388.467 28.8796 389.087 27.2277C391.174 21.9699 393.273 19.1759 398 16.0001C402.206 14.6662 406.476 14.8093 410.848 14.7631C411.742 14.7499 412.635 14.7368 413.555 14.7233C416.509 14.6815 419.464 14.647 422.418 14.6134C424.476 14.5877 426.534 14.5619 428.591 14.5361C432.908 14.4831 437.225 14.4342 441.541 14.3876C447.058 14.3273 452.575 14.2531 458.091 14.1752C462.344 14.1174 466.596 14.0692 470.849 14.0236C472.882 14.0003 474.915 13.9736 476.948 13.9433C479.8 13.9018 482.652 13.8738 485.505 13.849C486.336 13.834 487.167 13.8191 488.023 13.8036C495.827 13.7619 503.239 14.8777 510 19.0001C513.303 23.955 512.597 29.2157 512 35.0001C504.564 63.5003 481.522 89.535 464.044 112.327C440.097 139.034 440.097 139.034 430 171C432.929 180.856 442.047 188.105 449.063 195.188C449.532 195.662 450.002 196.137 450.486 196.626C453.171 199.298 455.935 201.832 458.805 204.305C463.429 208.315 467.747 212.6 472.063 216.938C472.826 217.698 473.59 218.457 474.377 219.24C479.125 223.997 483.648 228.88 488 234C488.534 234.622 489.067 235.243 489.617 235.883C495.642 242.953 501.376 250.101 506.188 258.063C506.55 258.657 506.912 259.251 507.285 259.864C511.41 266.959 512.842 273.901 512 282C510.375 286.57 507.189 288.488 503.231 290.984C498.224 293.264 492.675 293.187 487.257 293.329C486.505 293.352 485.753 293.375 484.978 293.398C482.504 293.472 480.029 293.539 477.555 293.606C475.821 293.654 474.087 293.702 472.353 293.75C468.72 293.85 465.087 293.946 461.454 294.04C456.828 294.16 452.202 294.295 447.576 294.434C443.993 294.539 440.41 294.633 436.827 294.724C435.123 294.77 433.42 294.819 431.716 294.872C408.323 295.59 391.826 290.367 374.379 274.258C368.937 269.093 363.743 263.82 358.848 258.133C356.011 254.858 353.094 251.655 350.184 248.445C348.26 246.291 346.411 244.093 344.563 241.875C338.579 235.015 330.724 227.703 321.438 226.563C317.426 227.073 315.935 228.317 313 231C312.34 231 311.68 231 311 231C310.565 231.878 310.565 231.878 310.121 232.774C309.443 234.121 308.751 235.462 308.035 236.789C302.215 247.775 300.862 258.98 300.57 271.24C300.334 277 299.586 282.978 295.691 287.531C289.034 293.484 281.849 293.308 273.418 293.301C271.727 293.307 271.727 293.307 270.001 293.314C267.613 293.32 265.225 293.32 262.837 293.316C259.238 293.313 255.64 293.336 252.041 293.361C239.365 293.397 227.357 292.913 215 290C214.142 289.807 213.284 289.613 212.4 289.414C187.067 283.283 163.849 269.342 143.615 253.273C142.228 252.18 140.814 251.121 139.395 250.07C126.742 240.533 115.591 228.565 106.314 215.771C104.829 213.769 103.292 211.816 101.742 209.863C93.8683 199.937 86.5604 189.745 79.5054 179.223C78.1168 177.172 76.7023 175.145 75.2696 173.125C49.7433 137.049 29.6878 96.7307 10.8644 56.8304C10.033 55.0698 9.19704 53.3113 8.36092 51.5529C6.90262 48.4629 5.47638 45.3606 4.06258 42.2501C3.64347 41.3652 3.22436 40.4802 2.79256 39.5685C0.0997932 33.4979 -1.16211 27.6422 7.77543e-05 21.0001C1.99823 18.0637 4.49453 16.476 7.91197 15.3958C10.1952 14.9632 12.3362 14.8396 14.6597 14.7948C15.5847 14.7749 16.5096 14.7549 17.4625 14.7344C18.4623 14.7177 19.4622 14.701 20.4923 14.6837C21.5385 14.6627 22.5848 14.6418 23.6627 14.6202C27.0668 14.5538 30.4709 14.495 33.8751 14.4376C35.6028 14.4073 35.6028 14.4073 37.3655 14.3765C44.2232 14.257 51.081 14.1486 57.939 14.0469C60.6972 14.0047 63.4553 13.958 66.2135 13.9088C70.3714 13.8359 74.5291 13.7892 78.6876 13.7501C79.8521 13.7288 81.0166 13.7074 82.2164 13.6854C91.1085 13.6485 97.8693 15.3279 105 21.0001C108.691 25.8842 110.861 31.116 113.188 36.7501C123.263 60.4916 135.274 83.5822 148 106C148.407 106.722 148.813 107.444 149.232 108.188C154.093 116.769 159.409 124.618 166 132C166.584 132.678 167.168 133.356 167.77 134.055C172.94 139.697 179.078 143.679 186.813 144.313C191.512 142.377 192.999 139.555 195 135C205.219 108.059 204.622 66.5818 195.313 39.3126C192.656 33.6074 188.984 29.6053 183.068 27.2218C178.442 25.582 173.745 24.2498 169 23.0001C169.78 18.0651 171.19 16.3235 175 13.0001C175.569 12.4909 176.137 11.9818 176.723 11.4571C189.494 0.836554 210.143 1.70622 226 1.31262C227.063 1.28367 227.063 1.28367 228.147 1.25415C283.41 -0.208448 283.41 -0.208448 294.813 10.6876Z" fill="white"/>
</svg>
