<svg width="35" height="35" viewBox="0 0 128 128" fill="none" xmlns="http://www.w3.org/2000/svg">
<path d="M24.0651 85.7288C24.915 85.7329 25.7649 85.7369 26.6406 85.7411C27.535 85.7376 28.4294 85.7341 29.351 85.7305C32.3174 85.7217 35.2836 85.7275 38.25 85.7343C40.305 85.7329 42.36 85.731 44.415 85.7285C48.7259 85.7255 53.0368 85.7298 57.3477 85.7392C62.883 85.7505 68.4181 85.744 73.9534 85.732C78.1981 85.7248 82.4427 85.7271 86.6874 85.7323C88.7288 85.7336 90.7702 85.7319 92.8116 85.7273C95.661 85.7222 98.51 85.7299 101.359 85.7411C102.209 85.7371 103.059 85.733 103.935 85.7288C109.771 85.7714 109.771 85.7714 112 87.9999C112.266 89.8749 112.266 89.8749 112.25 91.9999C112.258 93.0518 112.258 93.0518 112.266 94.1249C112 95.9999 112 95.9999 110 97.9999C107.088 98.1987 104.272 98.2726 101.359 98.2587C100.465 98.2622 99.5706 98.2657 98.649 98.2693C95.6826 98.2781 92.7164 98.2723 89.75 98.2655C87.695 98.2669 85.64 98.2688 83.585 98.2713C79.2741 98.2743 74.9632 98.27 70.6523 98.2606C65.117 98.2492 59.5819 98.2558 54.0466 98.2678C49.8019 98.275 45.5573 98.2727 41.3126 98.2675C39.2712 98.2662 37.2298 98.2678 35.1884 98.2725C32.339 98.2775 29.49 98.2698 26.6406 98.2587C25.7907 98.2627 24.9408 98.2668 24.0651 98.271C18.2285 98.2284 18.2285 98.2284 16 95.9999C15.7344 94.1249 15.7344 94.1249 15.75 91.9999C15.7448 91.2986 15.7397 90.5974 15.7344 89.8749C16.412 85.0919 20.1085 85.7577 24.0651 85.7288Z" fill="white"/>
<path d="M24.0651 57.7288C24.915 57.7329 25.7649 57.7369 26.6406 57.7411C27.535 57.7376 28.4294 57.7341 29.351 57.7305C32.3174 57.7217 35.2836 57.7275 38.25 57.7343C40.305 57.7329 42.36 57.731 44.415 57.7285C48.7259 57.7255 53.0368 57.7298 57.3477 57.7392C62.883 57.7505 68.4181 57.744 73.9534 57.732C78.1981 57.7248 82.4427 57.7271 86.6874 57.7323C88.7288 57.7336 90.7702 57.7319 92.8116 57.7273C95.661 57.7222 98.51 57.7299 101.359 57.7411C102.209 57.7371 103.059 57.733 103.935 57.7288C109.771 57.7714 109.771 57.7714 112 59.9999C112.266 61.8749 112.266 61.8749 112.25 63.9999C112.258 65.0518 112.258 65.0518 112.266 66.1249C112 67.9999 112 67.9999 110 69.9999C107.088 70.1987 104.272 70.2726 101.359 70.2587C100.465 70.2622 99.5706 70.2657 98.649 70.2693C95.6826 70.2781 92.7164 70.2723 89.75 70.2655C87.695 70.2669 85.64 70.2688 83.585 70.2713C79.2741 70.2743 74.9632 70.27 70.6523 70.2606C65.117 70.2492 59.5819 70.2558 54.0466 70.2678C49.8019 70.275 45.5573 70.2727 41.3126 70.2675C39.2712 70.2662 37.2298 70.2678 35.1884 70.2725C32.339 70.2775 29.49 70.2698 26.6406 70.2587C25.7907 70.2627 24.9408 70.2668 24.0651 70.271C18.2285 70.2284 18.2285 70.2284 16 67.9999C15.7344 66.1249 15.7344 66.1249 15.75 63.9999C15.7448 63.2986 15.7397 62.5974 15.7344 61.8749C16.412 57.0919 20.1085 57.7577 24.0651 57.7288Z" fill="white"/>
<path d="M24.0651 29.7288C24.915 29.7329 25.7649 29.7369 26.6406 29.7411C27.535 29.7376 28.4294 29.7341 29.351 29.7305C32.3174 29.7217 35.2836 29.7275 38.25 29.7343C40.305 29.7329 42.36 29.731 44.415 29.7285C48.7259 29.7255 53.0368 29.7298 57.3477 29.7392C62.883 29.7505 68.4181 29.744 73.9534 29.732C78.1981 29.7248 82.4427 29.7271 86.6874 29.7323C88.7288 29.7336 90.7702 29.7319 92.8116 29.7273C95.661 29.7222 98.51 29.7299 101.359 29.7411C102.209 29.7371 103.059 29.733 103.935 29.7288C109.771 29.7714 109.771 29.7714 112 31.9999C112.266 33.8749 112.266 33.8749 112.25 35.9999C112.258 37.0518 112.258 37.0518 112.266 38.1249C112 39.9999 112 39.9999 110 41.9999C107.088 42.1987 104.272 42.2726 101.359 42.2587C100.465 42.2622 99.5706 42.2657 98.649 42.2693C95.6826 42.2781 92.7164 42.2723 89.75 42.2655C87.695 42.2669 85.64 42.2688 83.585 42.2713C79.2741 42.2743 74.9632 42.27 70.6523 42.2606C65.117 42.2492 59.5819 42.2558 54.0466 42.2678C49.8019 42.275 45.5573 42.2727 41.3126 42.2675C39.2712 42.2662 37.2298 42.2678 35.1884 42.2725C32.339 42.2775 29.49 42.2698 26.6406 42.2587C25.7907 42.2627 24.9408 42.2668 24.0651 42.271C18.2285 42.2284 18.2285 42.2284 16 39.9999C15.7344 38.1249 15.7344 38.1249 15.75 35.9999C15.7448 35.2986 15.7397 34.5974 15.7344 33.8749C16.412 29.0919 20.1085 29.7577 24.0651 29.7288Z" fill="white"/>
</svg>
