<svg width="20" height="20" viewBox="0 0 512 512" fill="none" xmlns="http://www.w3.org/2000/svg">
<g clip-path="url(#clip0_6_3)">
<path d="M50 4C56.0692 8.16948 61.2653 12.9843 66.4409 18.2004C67.6579 19.4148 67.6578 19.4148 68.8994 20.6537C71.6017 23.3528 74.2969 26.0589 76.9922 28.7651C78.9332 30.7079 80.8758 32.6491 82.8183 34.5904C86.992 38.763 91.1619 42.9392 95.3294 47.118C101.355 53.1597 107.386 59.1958 113.418 65.2306C123.206 75.0232 132.99 84.8202 142.771 94.6201C152.269 104.136 161.769 113.651 171.272 123.162C171.858 123.749 172.445 124.336 173.049 124.94C175.99 127.885 178.932 130.829 181.874 133.773C206.256 158.176 230.63 182.585 255 207C258.081 205.627 260.185 204.062 262.559 201.676C263.251 200.985 263.944 200.294 264.657 199.583C265.786 198.441 265.786 198.441 266.937 197.276C267.743 196.47 268.549 195.663 269.379 194.832C272.086 192.118 274.787 189.397 277.487 186.677C279.423 184.733 281.36 182.79 283.297 180.848C287.473 176.659 291.646 172.467 295.817 168.273C301.854 162.201 307.9 156.137 313.947 150.074C323.768 140.229 333.587 130.381 343.402 120.529C343.99 119.939 344.577 119.35 345.182 118.742C353.514 110.379 361.843 102.013 370.17 93.6463C370.756 93.0575 371.342 92.4687 371.946 91.8621C372.531 91.274 373.117 90.6859 373.72 90.08C383.488 80.2653 393.265 70.4583 403.047 60.6576C409.078 54.6149 415.103 48.5656 421.119 42.508C425.245 38.3542 429.379 34.2077 433.518 30.0669C435.904 27.6794 438.286 25.2879 440.661 22.8894C443.24 20.2852 445.832 17.6936 448.428 15.1047C449.54 13.9729 449.54 13.9729 450.675 12.8184C458.354 5.21248 467.113 -0.237423 478.188 -0.374998C487.239 -0.220178 496.429 2.4917 503 9C511.182 18.9887 512.871 27.4791 512.195 40.0371C511.094 51.1048 501.251 60.0472 493.8 67.4409C492.585 68.6579 492.585 68.6579 491.346 69.8994C488.647 72.6018 485.941 75.2969 483.235 77.9922C481.292 79.9332 479.351 81.8758 477.41 83.8183C473.237 87.992 469.061 92.162 464.882 96.3294C458.84 102.355 452.804 108.386 446.769 114.418C436.977 124.206 427.18 133.99 417.38 143.771C407.864 153.269 398.349 162.769 388.838 172.272C388.251 172.858 387.664 173.445 387.06 174.049C384.115 176.99 381.171 179.932 378.227 182.874C353.824 207.256 329.415 231.63 305 256C309.452 261.335 314.158 266.287 319.091 271.177C320.288 272.37 320.288 272.37 321.509 273.587C324.171 276.239 326.837 278.888 329.502 281.536C331.416 283.442 333.33 285.348 335.244 287.254C338.827 290.823 342.412 294.391 345.997 297.958C353.043 304.968 360.083 311.984 367.121 319.002C368.231 320.109 369.34 321.216 370.45 322.323C372.132 324 373.814 325.677 375.496 327.354C381.827 333.667 388.158 339.98 394.491 346.292C395.069 346.868 395.648 347.445 396.244 348.039C405.621 357.385 415.005 366.723 424.391 376.059C434.041 385.658 443.681 395.266 453.312 404.882C459.246 410.807 465.188 416.723 471.14 422.63C475.22 426.68 479.29 430.739 483.353 434.805C485.694 437.148 488.041 439.485 490.397 441.814C492.955 444.345 495.497 446.891 498.036 449.442C498.776 450.166 499.516 450.891 500.279 451.638C508.779 460.255 512.362 469.232 512.455 481.238C512.264 490.257 508.765 497.265 502.75 503.938C501.537 505.002 500.285 506.024 499 507C498.352 507.505 497.703 508.011 497.035 508.531C488.828 513.724 478.336 513.162 469 512C453.893 508.102 440.833 489.969 430.24 479.353C428.347 477.46 426.454 475.567 424.561 473.674C420.5 469.615 416.442 465.554 412.385 461.491C406.519 455.617 400.651 449.746 394.782 443.876C385.257 434.349 375.735 424.82 366.214 415.29C356.971 406.038 347.727 396.787 338.482 387.537C337.626 386.68 337.626 386.68 336.752 385.806C333.888 382.941 331.024 380.075 328.159 377.21C304.436 353.476 280.717 329.739 257 306C253.928 307.37 251.827 308.927 249.459 311.306C248.771 311.992 248.083 312.679 247.374 313.386C246.252 314.521 246.252 314.521 245.107 315.679C244.307 316.481 243.506 317.283 242.681 318.109C239.989 320.807 237.305 323.511 234.621 326.216C232.696 328.148 230.771 330.079 228.845 332.01C224.693 336.174 220.545 340.342 216.399 344.512C210.396 350.549 204.385 356.579 198.372 362.607C188.605 372.398 178.841 382.192 169.08 391.989C168.496 392.575 167.912 393.162 167.31 393.766C159.026 402.08 150.746 410.398 142.467 418.716C141.885 419.302 141.302 419.887 140.702 420.49C139.83 421.367 139.83 421.367 138.939 422.261C129.226 432.02 119.505 441.772 109.778 451.517C103.782 457.525 97.7927 463.539 91.8119 469.561C87.7085 473.692 83.5979 477.816 79.4815 481.933C77.1095 484.307 74.7421 486.684 72.3812 489.069C69.8148 491.66 67.2363 494.238 64.6545 496.813C63.9198 497.561 63.1852 498.308 62.4283 499.079C52.6514 508.762 44.2173 512.344 30.6924 512.383C21.297 512.22 15.6576 509.613 8.68749 503.375C1.51405 495.532 -0.728085 487.622 -0.517342 477.205C0.474643 457.723 18.9434 444.916 31.8303 432.056C33.7434 430.144 35.6558 428.231 37.5682 426.318C41.6704 422.215 45.7743 418.114 49.8796 414.015C55.8149 408.088 61.7474 402.158 67.6793 396.227C77.3058 386.603 86.9345 376.981 96.5647 367.36C105.914 358.02 115.262 348.679 124.609 339.336C125.186 338.76 125.763 338.183 126.357 337.588C129.253 334.694 132.148 331.8 135.044 328.906C159.026 304.934 183.012 280.966 207 257C202.556 251.678 197.865 246.731 192.947 241.847C192.153 241.055 191.36 240.262 190.542 239.445C187.893 236.802 185.241 234.163 182.59 231.524C180.685 229.625 178.781 227.725 176.877 225.826C172.783 221.741 168.687 217.658 164.59 213.576C158.112 207.121 151.638 200.66 145.165 194.199C142.948 191.986 140.73 189.772 138.513 187.559C137.682 186.729 137.682 186.729 136.834 185.883C130.535 179.596 124.236 173.311 117.936 167.026C117.361 166.452 116.785 165.877 116.192 165.286C106.861 155.977 97.5265 146.672 88.1907 137.368C78.5946 127.804 69.0042 118.235 59.4188 108.66C53.512 102.761 47.6006 96.866 41.6829 90.9773C37.628 86.9415 33.5786 82.9001 29.5335 78.8545C27.2015 76.5225 24.8663 74.194 22.5261 71.8703C19.9857 69.347 17.4547 66.8147 14.9259 64.2799C14.1897 63.5532 13.4535 62.8264 12.695 62.0776C3.49483 52.8052 -0.408313 44.4255 -0.367928 31.4048C-0.233534 25.508 0.775819 21.0166 3.99999 16C4.35062 15.38 4.70124 14.7599 5.06249 14.1211C9.38242 7.17622 16.7314 2.73339 24.4883 0.472658C33.478 -1.21903 42.0192 -0.64202 50 4Z" fill="white"/>
</g>
<defs>
<clipPath id="clip0_6_3">
<rect width="512" height="512" fill="white"/>
</clipPath>
</defs>
</svg>
